<?xml version="1.0" encoding="UTF-8" standalone="no"?><!DOCTYPE svg PUBLIC "-//W3C//DTD SVG 1.1//EN" "http://www.w3.org/Graphics/SVG/1.1/DTD/svg11.dtd"><svg width="100%" height="100%" viewBox="0 0 447 93" version="1.1" xmlns="http://www.w3.org/2000/svg" xmlns:xlink="http://www.w3.org/1999/xlink" xml:space="preserve" style="fill-rule:evenodd;clip-rule:evenodd;stroke-linejoin:round;stroke-miterlimit:1.41421;"><g id="g4263"><g id="g4041"><path id="path3035" d="M79.184,23.684l-39.592,-22.859l-39.592,22.859l0,45.719l39.592,22.857l39.592,-22.857l-39.592,-22.86l39.592,-22.859Z" style="fill:#29aae1;fill-rule:nonzero;"/><path id="path3039" d="M158.369,23.684l-0.001,0l0.002,0l-39.593,-22.859l-39.593,22.859l0.001,0l0,45.719l-0.001,0l39.593,22.857l0,0.001l0,-0.001l39.593,-22.857l-0.001,0l0,-45.719Z" style="fill:#d3145a;fill-rule:nonzero;"/><g id="g3769"><clipPath id="_clip1"><rect id="path3783" x="0" y="23.68" width="39.591" height="45.722"/></clipPath><g clip-path="url(#_clip1)"><path d="M0,69.402l39.592,-22.859l-39.592,-22.859l0,45.718Z" style="fill-opacity:0.199997;fill-rule:nonzero;"/></g></g><g id="g3785"><clipPath id="_clip2"><rect id="path3799" x="0" y="46.546" width="79.181" height="45.713"/></clipPath><g clip-path="url(#_clip2)"><path d="M39.592,92.261l39.593,-22.858l-39.593,-22.86l-39.592,22.86l39.592,22.858Z" style="fill-opacity:0.350006;fill-rule:nonzero;"/></g></g><g id="g3801"><clipPath id="_clip3"><rect id="path3815" x="79.182" y="23.68" width="39.6" height="68.578"/></clipPath><g clip-path="url(#_clip3)"><path d="M79.184,23.684l39.593,22.856l0,45.72l-39.593,-22.859l0,-45.717Z" style="fill-opacity:0.199997;fill-rule:nonzero;"/></g></g><g id="g3817"><clipPath id="_clip4"><rect id="path3831" x="118.782" y="23.68" width="39.591" height="68.578"/></clipPath><g clip-path="url(#_clip4)"><path d="M158.37,23.684l-39.593,22.856l0,45.72l39.593,-22.859l0,-45.717Z" style="fill-opacity:0.350006;fill-rule:nonzero;"/></g></g></g><g id="g4035"><g id="text4818"><text x="181.958px" y="41.664px" style="font-family:'LucidaGrande', 'Lucida Grande', sans-serif;font-weight:500;font-size:54.039px;fill:#890d3b;">c<tspan x="208.835px 241.067px 281.498px 313.73px 335.201px 365.87px 381.038px 413.603px " y="41.664px 41.664px 41.664px 41.664px 41.664px 41.664px 41.664px 41.664px ">oworking</tspan></text></g><g id="text4822-8"><text x="207.854px" y="77.53px" style="font-family:'LucidaGrande-Bold', 'Lucida Grande', sans-serif;font-weight:600;font-size:29.837px;">H<tspan x="233.803px 253.776px 264.801px 284.141px 305.088px 328.033px 355.41px 380.969px " y="77.53px 77.53px 77.53px 77.53px 77.53px 77.53px 77.53px 77.53px ">EILBRONN</tspan></text></g></g></g></svg>